<svg width="20" height="20" viewBox="0 0 20 20" fill="none" xmlns="http://www.w3.org/2000/svg">
<path d="M11.3462 2.59615C11.3462 1.85156 10.7446 1.25 10 1.25C9.25541 1.25 8.65385 1.85156 8.65385 2.59615V8.65385H2.59615C1.85156 8.65385 1.25 9.25541 1.25 10C1.25 10.7446 1.85156 11.3462 2.59615 11.3462H8.65385V17.4038C8.65385 18.1484 9.25541 18.75 10 18.75C10.7446 18.75 11.3462 18.1484 11.3462 17.4038V11.3462H17.4038C18.1484 11.3462 18.75 10.7446 18.75 10C18.75 9.25541 18.1484 8.65385 17.4038 8.65385H11.3462V2.59615Z" fill="black"/>
</svg>
